# xmcd CD database file
#
# Track frame offsets:
#	150
#	21519
#	43212
#	62280
#	80302
#	98282
#	116412
#	139767
#
# Disc length: 2145 seconds
#
# Revision: 1
# Processed by: cddbd v1.5PL3 Copyright (c) Steve Scherf et al.
# Submitted via: CDex 1.51
#
DISCID=5b085f08
DTITLE=m.c.A・T - ah-yea-h
DYEAR=1995
DGENRE=Japanese Pop
TTITLE0=U can get a Chance!
TTITLE1=Oh! My Precious!
TTITLE2=You've gotta go Home!
TTITLE3=風に叫ぶ -Energy Guyのテーマ-
TTITLE4=Cuty'n Beauty, Ｉ'm sorry
TTITLE5=HERO From NORTH -love peace joy-
TTITLE6=風に叫ぶ -Energy Guyのテーマ- (swing jam mix)
TTITLE7=Baby Come around
EXTD=YEAR: 1995
EXTT0=
EXTT1=
EXTT2=
EXTT3=
EXTT4=
EXTT5=
EXTT6=
EXTT7=
PLAYORDER=
